<!DOCTYPE svg PUBLIC "-//W3C//DTD SVG 1.1//EN" "http://www.w3.org/Graphics/SVG/1.1/DTD/svg11.dtd">

<svg version="1.1" id="Layer_1" xmlns="http://www.w3.org/2000/svg" xmlns:xlink="http://www.w3.org/1999/xlink" viewBox="0 0 512.00 512.00" xml:space="preserve" width="800px" height="800px" fill="#000000">

<g id="SVGRepo_bgCarrier" stroke-width="0"/>

<g id="SVGRepo_tracerCarrier" stroke-linecap="round" stroke-linejoin="round"/>

<g id="SVGRepo_iconCarrier"> <polygon style="fill:#8fa9bd;" points="470.79,32.904 479.1,41.214 491.565,20.439 "/> <rect x="15.799" y="436.287" transform="matrix(-0.7071 -0.7071 0.7071 -0.7071 -212.1256 811.9431)" style="fill:#FFFFFF;" width="92.595" height="27.234"/> <g> <path style="fill:#00b3ff;" d="M161.64,273.334c3.191,3.191,3.191,8.364,0,11.555L50.538,395.992l65.475,65.475l111.103-111.103 c3.191-3.191,8.364-3.191,11.554,0l11.554-11.554l-77.03-77.03L161.64,273.334z"/> <path style="fill:#00b3ff;" d="M350.362,238.672c-3.191-3.191-3.191-8.364,0-11.555l53.331-53.331l-21.183-21.183 c-3.191-3.191-3.191-8.364,0-11.554c3.193-3.192,8.365-3.191,11.555,0l12.712,12.713l70.769-90.991l-28.314-28.315l-90.991,70.77 l12.714,12.714c3.191,3.191,3.191,8.364,0,11.554c-3.192,3.191-8.364,3.191-11.555,0l-21.183-21.183l-53.33,53.331 c-1.596,1.595-3.688,2.393-5.778,2.393c-2.091,0-4.182-0.797-5.778-2.393l-11.554,11.554l77.03,77.03L350.362,238.672z M417.174,83.277c3.191-3.191,8.364-3.191,11.555,0c3.191,3.191,3.191,8.364,0,11.555c-3.191,3.191-8.364,3.191-11.555,0 S413.983,86.467,417.174,83.277z"/> </g> <g> <circle style="fill:#082947;" cx="422.946" cy="89.058" r="8.17"/> <path style="fill:#082947;" d="M284.888,161.642l53.33-53.331l21.183,21.183c3.192,3.191,8.364,3.191,11.555,0 c3.191-3.191,3.191-8.364,0-11.554l-12.714-12.714l90.991-70.77l28.314,28.315l-70.769,90.991l-12.712-12.713 c-3.191-3.191-8.363-3.192-11.555,0c-3.191,3.191-3.191,8.364,0,11.554l21.183,21.183l-53.331,53.331 c-3.191,3.191-3.191,8.364,0,11.554c1.596,1.595,3.688,2.393,5.778,2.393c2.092,0,4.182-0.797,5.778-2.393l59.108-59.108 c3.191-3.191,3.191-8.364,0-11.554l-2.604-2.604l76.452-98.296c2.529-3.252,2.242-7.879-0.671-10.793l-3.192-3.192l19.826-33.046 c1.929-3.215,1.422-7.33-1.23-9.982l-7.703-7.703c-2.649-2.649-6.764-3.158-9.98-1.228l-33.044,19.826L455.69,17.8 c-2.913-2.913-7.541-3.202-10.793-0.672L346.599,93.58l-2.603-2.602c-3.192-3.191-8.364-3.191-11.555,0l-59.108,59.108 c-3.191,3.191-3.191,8.364,0,11.554c1.596,1.595,3.688,2.393,5.778,2.393C281.201,164.035,283.292,163.238,284.888,161.642z M470.79,32.904l20.775-12.464l-12.466,20.775L470.79,32.904z"/> <path style="fill:#082947;" d="M227.116,350.364L116.013,461.467l-65.475-65.475l111.103-111.103c3.191-3.191,3.191-8.364,0-11.554 c-3.191-3.191-8.364-3.191-11.554,0L33.212,390.21c-0.011,0.011-30.817,30.817-30.817,30.817c-1.533,1.532-2.393,3.61-2.393,5.777 c0,2.167,0.861,4.245,2.393,5.777l77.03,77.029c1.595,1.595,3.686,2.393,5.777,2.393s4.182-0.797,5.777-2.393l147.691-147.69 c3.191-3.191,3.191-8.364,0-11.554C235.48,347.173,230.307,347.173,227.116,350.364z M38.984,407.546l65.475,65.475l-19.258,19.258 l-65.475-65.475L38.984,407.546z"/> </g> <polygon style="fill:#ffffff;" points="32.903,41.214 41.213,32.905 20.438,20.439 "/> <rect x="403.604" y="436.292" transform="matrix(-0.7071 0.7071 -0.7071 -0.7071 1086.1642 449.9141)" style="fill:#FFFFFF;" width="92.595" height="27.234"/> <path style="fill:#ffffff;" d="M395.99,461.467l65.475-65.475l-287.68-287.681l-21.183,21.183c-3.191,3.191-8.364,3.191-11.554,0 c-3.191-3.191-3.191-8.364,0-11.554l12.713-12.713L62.769,34.456L34.455,62.772l70.77,90.991l12.713-12.713 c3.191-3.191,8.364-3.191,11.554,0c3.191,3.191,3.191,8.364,0,11.554l-21.183,21.183L395.99,461.467z M94.83,94.832 c-3.191,3.191-8.364,3.191-11.555,0s-3.191-8.364,0-11.555s8.364-3.191,11.555,0C98.021,86.467,98.021,91.641,94.83,94.832z"/> <g> <circle style="fill:#082947;" cx="89.057" cy="89.058" r="8.17"/> <path style="fill:#082947;" d="M509.609,421.027l-30.806-30.806c-0.012-0.012-139.995-139.994-139.995-139.994l-77.03-77.03 l-82.216-82.216c-3.191-3.191-8.364-3.191-11.554,0l-2.602,2.602L67.108,17.131c-3.252-2.529-7.878-2.242-10.793,0.672 l-3.193,3.193L20.078,1.167c-3.215-1.929-7.329-1.423-9.981,1.229l-7.703,7.703c-2.652,2.652-3.157,6.766-1.229,9.981 l19.827,33.045L17.8,56.317c-2.914,2.913-3.202,7.541-0.672,10.793l76.452,98.296l-2.602,2.602c-3.191,3.191-3.191,8.364,0,11.554 l82.216,82.216l77.03,77.03l139.986,139.988c0.002,0.002,30.813,30.813,30.813,30.813c1.596,1.595,3.686,2.393,5.778,2.393 c2.09,0,4.182-0.797,5.778-2.393l77.03-77.029c1.532-1.532,2.392-3.61,2.392-5.777 C512.001,424.638,511.141,422.558,509.609,421.027z M129.493,152.604c3.191-3.191,3.191-8.364,0-11.554 c-3.191-3.191-8.364-3.191-11.554,0l-12.713,12.713L34.455,62.772l28.315-28.315l90.991,70.77l-12.713,12.713 c-3.191,3.191-3.191,8.364,0,11.554c3.191,3.191,8.364,3.191,11.554,0l21.183-21.183l287.68,287.68l-65.475,65.475L108.31,173.786 L129.493,152.604z M32.903,41.214L20.438,20.439l20.775,12.466L32.903,41.214z M407.545,473.022l65.475-65.475l19.258,19.258 l-65.475,65.475L407.545,473.022z"/> </g> </g>

</svg>
